<svg xmlns="http://www.w3.org/2000/svg" viewBox="0 0 100 100">
  <defs>
    <linearGradient id="dnaGrad" x1="0%" y1="0%" x2="100%" y2="100%">
      <stop offset="0%" style="stop-color:#0d9488;stop-opacity:1" />
      <stop offset="100%" style="stop-color:#6366f1;stop-opacity:1" />
    </linearGradient>
  </defs>
  <!-- DNA Double Helix -->
  <path d="M30 10 Q50 25 70 10 Q50 25 30 40 Q50 55 70 40 Q50 55 30 70 Q50 85 70 70 Q50 85 30 90" 
        fill="none" stroke="url(#dnaGrad)" stroke-width="4" stroke-linecap="round"/>
  <path d="M70 10 Q50 25 30 10 Q50 25 70 40 Q50 55 30 40 Q50 55 70 70 Q50 85 30 70 Q50 85 70 90" 
        fill="none" stroke="url(#dnaGrad)" stroke-width="4" stroke-linecap="round"/>
  <!-- Base pairs -->
  <line x1="35" y1="25" x2="65" y2="25" stroke="#22c55e" stroke-width="3" stroke-linecap="round"/>
  <line x1="35" y1="55" x2="65" y2="55" stroke="#ef4444" stroke-width="3" stroke-linecap="round"/>
  <line x1="35" y1="75" x2="65" y2="75" stroke="#3b82f6" stroke-width="3" stroke-linecap="round"/>
</svg>
